<?xml version="1.0" encoding="UTF-8" standalone="no"?>
<!DOCTYPE svg PUBLIC "-//W3C//DTD SVG 1.1//EN"
 "http://www.w3.org/Graphics/SVG/1.1/DTD/svg11.dtd">
<!-- Generated by graphviz version 3.0.0 (20220413.0242)
 -->
<!-- Title: inheritancee4729c36b3 Pages: 1 -->
<svg width="430pt" height="64pt"
 viewBox="0.00 0.00 430.00 64.00" xmlns="http://www.w3.org/2000/svg" xmlns:xlink="http://www.w3.org/1999/xlink">
<g id="graph0" class="graph" transform="scale(1 1) rotate(0) translate(4 60)">
<title>inheritancee4729c36b3</title>
<!-- ArgParseMixin -->
<g id="node1" class="node">
<title>ArgParseMixin</title>
<g id="a_node1"><a xlink:title="Mixin&#45;class to implement an :mod:`argparse`&#45;base command line argument">
<polygon fill="white" stroke="black" stroke-width="0.5" points="317,-19 203,-19 203,0 317,0 317,-19"/>
<text text-anchor="middle" x="260" y="-7" font-family="Vera Sans, DejaVu Sans, Liberation Sans, Arial, Helvetica, sans" font-size="10.00">ArgParseMixin</text>
</a>
</g>
</g>
<!-- Program -->
<g id="node3" class="node">
<title>Program</title>
<g id="a_node3"><a xlink:href="../pyEDAA.UCIS/pyEDAA.UCIS.CLI.html#pyEDAA.UCIS.CLI.Program" xlink:title="Program class to implement the command line interface (CLI) using commands and options." target="_top">
<polygon fill="white" stroke="black" stroke-width="0.5" points="422,-37 353,-37 353,-18 422,-18 422,-37"/>
<text text-anchor="middle" x="387.5" y="-25" font-family="Vera Sans, DejaVu Sans, Liberation Sans, Arial, Helvetica, sans" font-size="10.00">Program</text>
</a>
</g>
</g>
<!-- ArgParseMixin&#45;&gt;Program -->
<g id="edge3" class="edge">
<title>ArgParseMixin&#45;&gt;Program</title>
<path fill="none" stroke="black" stroke-width="0.5" d="M317.14,-17.55C327.48,-19.03 338.06,-20.55 347.74,-21.94"/>
<polygon fill="black" stroke="black" stroke-width="0.5" points="347.52,-23.68 352.72,-22.65 348.02,-20.21 347.52,-23.68"/>
</g>
<!-- AttributeHelperMixin -->
<g id="node2" class="node">
<title>AttributeHelperMixin</title>
<g id="a_node2"><a xlink:title="A mixin class to ease finding methods with attached pyAttributes.">
<polygon fill="white" stroke="black" stroke-width="0.5" points="167,-19 0,-19 0,0 167,0 167,-19"/>
<text text-anchor="middle" x="83.5" y="-7" font-family="Vera Sans, DejaVu Sans, Liberation Sans, Arial, Helvetica, sans" font-size="10.00">AttributeHelperMixin</text>
</a>
</g>
</g>
<!-- AttributeHelperMixin&#45;&gt;ArgParseMixin -->
<g id="edge1" class="edge">
<title>AttributeHelperMixin&#45;&gt;ArgParseMixin</title>
<path fill="none" stroke="black" stroke-width="0.5" d="M167.15,-9.5C177.35,-9.5 187.64,-9.5 197.45,-9.5"/>
<polygon fill="black" stroke="black" stroke-width="0.5" points="197.53,-11.25 202.53,-9.5 197.53,-7.75 197.53,-11.25"/>
</g>
<!-- ProgramBase -->
<g id="node4" class="node">
<title>ProgramBase</title>
<g id="a_node4"><a xlink:href="../pyEDAA.UCIS/pyEDAA.UCIS.CLI.html#pyEDAA.UCIS.CLI.ProgramBase" xlink:title="Base&#45;class for all program classes." target="_top">
<polygon fill="white" stroke="black" stroke-width="0.5" points="309.5,-56 210.5,-56 210.5,-37 309.5,-37 309.5,-56"/>
<text text-anchor="middle" x="260" y="-44" font-family="Vera Sans, DejaVu Sans, Liberation Sans, Arial, Helvetica, sans" font-size="10.00">ProgramBase</text>
</a>
</g>
</g>
<!-- ProgramBase&#45;&gt;Program -->
<g id="edge2" class="edge">
<title>ProgramBase&#45;&gt;Program</title>
<path fill="none" stroke="black" stroke-width="0.5" d="M309.52,-39.15C322.2,-37.24 335.69,-35.19 347.78,-33.36"/>
<polygon fill="black" stroke="black" stroke-width="0.5" points="348.19,-35.07 352.87,-32.59 347.66,-31.61 348.19,-35.07"/>
</g>
</g>
</svg>
