<?xml version="1.0" encoding="UTF-8" standalone="no"?>
<!DOCTYPE svg PUBLIC "-//W3C//DTD SVG 1.1//EN"
 "http://www.w3.org/Graphics/SVG/1.1/DTD/svg11.dtd">
<!-- Generated by graphviz version 8.0.5 (20230430.1635)
 -->
<!-- Title: inheritancee4729c36b3 Pages: 1 -->
<svg width="1pt" height="864pt"
 viewBox="0.00 0.00 0.57 864.00" xmlns="http://www.w3.org/2000/svg" xmlns:xlink="http://www.w3.org/1999/xlink">
<g id="graph0" class="graph" transform="scale(0.00132168 0.00132168) rotate(0) translate(4 653710.69)">
<title>inheritancee4729c36b3</title>
<!-- ArgParseMixin -->
<g id="node1" class="node">
<title>ArgParseMixin</title>
<g id="a_node1"><a xlink:title="Mixin&#45;class to implement an :mod:`argparse`&#45;base command line argument">
<polygon fill="white" stroke="black" stroke-width="0.5" points="315.5,-1176324.88 202,-1176324.88 202,0 315.5,0 315.5,-1176324.88"/>
<text text-anchor="middle" x="258.75" y="-1176311.38" font-family="Vera Sans, DejaVu Sans, Liberation Sans, Arial, Helvetica, sans" font-size="10.00">ArgParseMixin</text>
</a>
</g>
</g>
<!-- Program -->
<g id="node3" class="node">
<title>Program</title>
<g id="a_node3"><a xlink:href="pyEDAA.UCIS.CLI.html#pyEDAA.UCIS.CLI.Program" xlink:title="Program class to implement the command line interface (CLI) using commands and options." target="_top">
<polygon fill="white" stroke="black" stroke-width="0.5" points="420,-620938.69 351.5,-620938.69 351.5,-620920.19 420,-620920.19 420,-620938.69"/>
<text text-anchor="middle" x="385.75" y="-620925.19" font-family="Vera Sans, DejaVu Sans, Liberation Sans, Arial, Helvetica, sans" font-size="10.00">Program</text>
</a>
</g>
</g>
<!-- ArgParseMixin&#45;&gt;Program -->
<g id="edge3" class="edge">
<title>ArgParseMixin&#45;&gt;Program</title>
<path fill="none" stroke="black" stroke-width="0.5" d="M316,-602907.43C348.4,-611402 383.07,-620490.03 384.69,-620914.01"/>
<polygon fill="black" stroke="black" stroke-width="0.5" points="382.94,-620914.88 384.71,-620919.87 386.44,-620914.87 382.94,-620914.88"/>
</g>
<!-- AttributeHelperMixin -->
<g id="node2" class="node">
<title>AttributeHelperMixin</title>
<g id="a_node2"><a xlink:title="A mixin class to ease finding methods with attached pyAttributes.">
<polygon fill="white" stroke="black" stroke-width="0.5" points="166,-588171.69 0,-588171.69 0,-588153.19 166,-588153.19 166,-588171.69"/>
<text text-anchor="middle" x="83" y="-588158.19" font-family="Vera Sans, DejaVu Sans, Liberation Sans, Arial, Helvetica, sans" font-size="10.00">AttributeHelperMixin</text>
</a>
</g>
</g>
<!-- AttributeHelperMixin&#45;&gt;ArgParseMixin -->
<g id="edge1" class="edge">
<title>AttributeHelperMixin&#45;&gt;ArgParseMixin</title>
<path fill="none" stroke="black" stroke-width="0.5" d="M166.3,-588162.44C176.17,-588162.44 186.13,-588162.44 195.66,-588162.44"/>
<polygon fill="black" stroke="black" stroke-width="0.5" points="196.53,-588164.19 201.53,-588162.44 196.53,-588160.69 196.53,-588164.19"/>
</g>
<!-- ProgramBase -->
<g id="node4" class="node">
<title>ProgramBase</title>
<g id="a_node4"><a xlink:href="pyEDAA.UCIS.CLI.html#pyEDAA.UCIS.CLI.ProgramBase" xlink:title="Base&#45;class for all program classes." target="_top">
<polygon fill="white" stroke="black" stroke-width="0.5" points="308,-653706.69 209.5,-653706.69 209.5,-653688.19 308,-653688.19 308,-653706.69"/>
<text text-anchor="middle" x="258.75" y="-653693.19" font-family="Vera Sans, DejaVu Sans, Liberation Sans, Arial, Helvetica, sans" font-size="10.00">ProgramBase</text>
</a>
</g>
</g>
<!-- ProgramBase&#45;&gt;Program -->
<g id="edge2" class="edge">
<title>ProgramBase&#45;&gt;Program</title>
<path fill="none" stroke="black" stroke-width="0.5" d="M308.07,-653691.03C310.87,-653689.25 313.4,-653687.08 315.5,-653684.44 385.42,-653596.53 384.78,-621736.15 384.75,-620944.44"/>
<polygon fill="black" stroke="black" stroke-width="0.5" points="386.5,-620943.72 384.75,-620938.72 383,-620943.72 386.5,-620943.72"/>
</g>
</g>
</svg>
